<svg xmlns="http://www.w3.org/2000/svg" xmlns:xlink="http://www.w3.org/1999/xlink" xmlns:inkscape="http://www.inkscape.org/namespaces/inkscape" version="1.1" width="408.189" height="127.5591" viewBox="0 0 408.189 127.5591">
<g inkscape:groupmode="layer" inkscape:label="&#x0421;&#x043B;&#x043E;&#x0439; 1">
<path transform="matrix(1,0,0,-1,0,127.5591)" d="M23.3768 71.78C23.4524 70.1563 23.8774 68.6837 24.6512 67.362 25.4254 66.0404 26.4923 64.9171 27.8328 63.9918 29.1733 63.0666 30.7593 62.3492 32.5718 61.8395 34.3843 61.3295 36.3764 61.0747 38.5288 61.0747 40.7285 61.0747 42.7014 61.3392 44.4572 61.8678 46.2226 62.3965 47.7238 63.1517 48.9699 64.1336 50.216 65.1152 51.1883 66.3046 51.8681 67.7018 52.5478 69.099 52.8877 70.6473 52.8877 72.3467 52.8877 74.6878 52.3023 76.6043 51.1316 78.0959 49.9516 79.5875 48.4883 80.8336 46.7229 81.8342 44.9671 82.8349 43.0603 83.6751 40.9927 84.3548 38.9347 85.0346 37.0182 85.752 35.2624 86.5071 33.497 87.2626 32.0338 88.1308 30.8537 89.1128 29.683 90.0947 29.0976 91.3975 29.0976 93.0212 29.0976 93.9274 29.2961 94.7769 29.6926 95.5701 30.0889 96.3629 30.6743 97.052 31.4484 97.6374 32.2319 98.2227 33.1855 98.6947 34.3182 99.0536 35.4512 99.4122 36.754 99.5916 38.236 99.5916 40.6905 99.5916 42.7864 99.0723 44.5045 98.034 46.2226 96.9956 47.2329 95.3623 47.5347 93.1343H51.3961C51.1693 94.5315 50.6597 95.7872 49.8668 96.9012 49.0737 98.015 48.073 98.9592 46.8553 99.7333 45.6469 100.5075 44.278 101.0925 42.7487 101.4891 41.2191 101.8857 39.6145 102.0838 37.9528 102.0838 36.2157 102.0838 34.5543 101.8573 32.9873 101.4041 31.4201 100.9511 30.0419 100.2903 28.8524 99.4218 27.6534 98.5533 26.7094 97.458 26.0107 96.1364 25.3123 94.8146 24.9627 93.3043 24.9627 91.605 24.9627 89.3772 25.5294 87.5835 26.6621 86.224 27.7951 84.8645 29.2204 83.7317 30.9387 82.8255 32.6568 81.9193 34.5166 81.1451 36.5179 80.5031 38.5191 79.861 40.379 79.1342 42.0973 78.3224 43.8154 77.5106 45.2409 76.5193 46.3737 75.3486 47.5067 74.1781 48.073 72.6109 48.073 70.6473 48.073 68.1928 47.1762 66.399 45.3824 65.2663 43.5889 64.1336 41.2004 63.5669 38.2173 63.5669 35.8381 63.5669 33.9313 63.8785 32.4964 64.5015 31.0615 65.1246 29.9662 65.8704 29.211 66.7389 28.4559 67.6074 27.9459 68.5043 27.6817 69.4295 27.4173 70.3548 27.2665 71.1383 27.2285 71.78Z" fill="#d2ac67"/>
<path transform="matrix(1,0,0,-1,0,127.5591)" d="M58.3821 101.4041 72.0896 76.7648V61.7545H77.2438V77.2744L91.1781 101.4041H88.1192L75.9977 80.5031H75.7712L64.2161 101.4041Z" fill="#d2ac67"/>
<path transform="matrix(1,0,0,-1,0,127.5591)" d="M103.5261 101.4041H99.6744V61.7545H102.1666V94.0972H102.3931L119.8956 61.0747H120.9152L138.8143 93.8707H139.0408V61.7545H144.1953V101.4041H140.2869L121.9348 67.362H121.7081Z" fill="#d2ac67"/>
<path transform="matrix(1,0,0,-1,0,127.5591)" d="M161.6411 101.4041H157.7894V61.7545H160.2816V94.0972H160.5081L178.0106 61.0747H179.0303L196.9294 93.8707H197.1558V61.7545H202.3104V101.4041H198.402L180.0499 67.362H179.8231Z" fill="#d2ac67"/>
<path transform="matrix(1,0,0,-1,0,127.5591)" d="M215.9045 101.4041V61.7545H241.5067V64.8697H221.0587V81.466H238.6179V84.0716H221.0587V98.2888H241.5067V101.4041Z" fill="#d2ac67"/>
<path transform="matrix(1,0,0,-1,0,127.5591)" d="M264.6737 61.7545V98.2888H279.8538V101.4041H244.3388V98.2888H259.5192V61.7545Z" fill="#d2ac67"/>
<path transform="matrix(1,0,0,-1,0,127.5591)" d="M287.7837 101.4041V61.7545H292.938V79.257H295.4398C296.4971 79.257 297.3844 79.1626 298.0831 78.9738 298.7816 78.785 299.4236 78.4638 299.99 78.0109 300.5563 77.5576 301.0853 76.9725 301.576 76.2548 302.0763 75.5374 302.6616 74.6501 303.3414 73.5928L307.8351 66.9657C308.3922 66.0971 308.9489 65.304 309.4872 64.5866 310.0346 63.8691 310.6199 63.2554 311.2526 62.7457 311.8944 62.2358 312.6118 61.8299 313.4237 61.528 314.2261 61.2258 315.1984 61.0747 316.3314 61.0747 317.1623 61.0747 317.842 61.1124 318.3707 61.1881 318.8993 61.2635 319.428 61.4523 319.9567 61.7545V63.8501C319.7676 63.8124 319.5788 63.7841 319.39 63.7654 319.2012 63.7464 319.0124 63.737 318.8237 63.737 318.0308 63.737 317.3321 63.8501 316.728 64.0769 316.1237 64.3034 315.5573 64.6339 315.0286 65.0682 314.5 65.5024 313.9903 66.0311 313.4993 66.6541 313.0177 67.2772 312.5081 67.985 311.9888 68.7781 310.4124 71.0816 309.1944 72.9224 308.3355 74.3009 307.4763 75.6791 306.7872 76.7458 306.2775 77.5012 305.7676 78.2563 305.3523 78.8037 305.0311 79.1436 304.7102 79.4835 304.3233 79.7666 303.87 79.9934L303.3037 80.2766V80.5031C305.1162 80.6165 306.6738 81.0128 307.9672 81.6925 309.2604 82.3723 310.3177 83.2221 311.1486 84.2414 311.97 85.261 312.5648 86.3657 312.9423 87.5551 313.3106 88.7445 313.4993 89.9059 313.4993 91.0386 313.4993 92.0582 313.3009 93.1723 312.9046 94.3804 312.5081 95.5888 311.8283 96.7122 310.8654 97.7508 309.9025 98.7891 308.5903 99.6576 306.9286 100.3564 305.2672 101.0548 303.1716 101.4041 300.6414 101.4041ZM292.938 98.9118H298.6778C300.1224 98.9118 301.4155 98.7043 302.5766 98.2888 303.7286 97.8735 304.7292 97.2975 305.5598 96.5614 306.3906 95.8249 307.0327 94.947 307.4669 93.9274 307.9012 92.9078 308.1183 91.7938 308.1183 90.5854 308.1183 89.566 307.9199 88.5368 307.5236 87.4984 307.1271 86.4601 306.5227 85.5159 305.7299 84.6663 304.9367 83.8168 303.9551 83.1274 302.8034 82.5987 301.642 82.0701 300.3111 81.8059 298.7912 81.8059H292.938Z" fill="#d2ac67"/>
<path transform="matrix(1,0,0,-1,0,127.5591)" d="M330.7187 101.4041V61.7545H335.8729V101.4041Z" fill="#d2ac67"/>
<path transform="matrix(1,0,0,-1,0,127.5591)" d="M373.7667 73.4227 379.2044 61.7545H384.6988L366.2334 101.4041H363.4013L346.6352 61.7545H349.2405L354.2253 73.4227ZM372.5773 75.9716H355.3013L363.458 95.0601H363.6845Z" fill="#d2ac67"/>
<path transform="matrix(1,0,0,-1,0,127.5591)" d="M175.3515 28.6098C173.7196 27.0737 171.7835 26.3058 169.5433 26.3058 168.2955 26.3058 167.1914 26.5218 166.2313 26.9538 165.2715 27.3858 164.4715 27.9618 163.8315 28.6818 163.1914 29.4018 162.7075 30.2338 162.3793 31.1777 162.0513 32.1219 161.8875 33.1058 161.8875 34.1297 161.8875 35.2179 162.0592 36.2137 162.4034 37.1177 162.7475 38.022 163.2314 38.8018 163.8553 39.458 164.4795 40.1139 165.2193 40.6259 166.0754 40.9938 166.9314 41.3617 167.8635 41.546 168.8715 41.546 169.5594 41.546 170.1873 41.4658 170.7554 41.3059 171.3234 41.1457 171.8274 40.938 172.2674 40.682 172.7073 40.4257 173.0673 40.1338 173.3474 39.8058 173.6274 39.4778 173.8233 39.1459 173.9356 38.81H175.7115C175.4714 39.354 175.1635 39.858 174.7874 40.322 174.4115 40.7857 173.9435 41.186 173.3834 41.5219 172.8235 41.8578 172.1673 42.122 171.4156 42.3139 170.6635 42.5058 169.8075 42.6019 168.8474 42.6019 167.4553 42.6019 166.1873 42.4018 165.0433 42.0018 163.8995 41.6018 162.9193 41.0298 162.1035 40.286 161.2874 39.5419 160.6552 38.6459 160.2074 37.5979 159.7595 36.5499 159.5353 35.3778 159.5353 34.0818 159.5353 32.9618 159.7153 31.8699 160.0753 30.8058 160.4353 29.742 160.9914 28.7977 161.7435 27.9737 162.4955 27.1497 163.4553 26.4858 164.6235 25.9818 165.7913 25.4778 167.1834 25.2258 168.7995 25.2258 169.8233 25.2258 170.7395 25.3219 171.5474 25.5138 172.3555 25.7057 173.0594 25.9418 173.6595 26.2219 174.2596 26.5017 174.7593 26.8019 175.1596 27.1219 175.5595 27.4419 175.8634 27.7217 176.0715 27.9618Z" fill="#d2ac67"/>
<path transform="matrix(1,0,0,-1,0,127.5591)" d="M179.4314 25.5138V42.3139H181.6155V26.8339H190.2796V25.5138Z" fill="#d2ac67"/>
<path transform="matrix(1,0,0,-1,0,127.5591)" d="M194.8397 42.3139V25.5138H197.0235V42.3139Z" fill="#d2ac67"/>
<path transform="matrix(1,0,0,-1,0,127.5591)" d="M217.2796 42.3139V29.4738H217.1837L203.8635 42.6019H203.7436V25.5138H204.8477V38.3539H204.9435L218.2637 25.2258H218.3837V42.3139Z" fill="#d2ac67"/>
<path transform="matrix(1,0,0,-1,0,127.5591)" d="M225.1037 42.3139V25.5138H227.2876V42.3139Z" fill="#d2ac67"/>
<path transform="matrix(1,0,0,-1,0,127.5591)" d="M248.1437 28.6098C246.5118 27.0737 244.5758 26.3058 242.3356 26.3058 241.0877 26.3058 239.9837 26.5218 239.0236 26.9538 238.0637 27.3858 237.2638 27.9618 236.6237 28.6818 235.9837 29.4018 235.4998 30.2338 235.1716 31.1777 234.8436 32.1219 234.6797 33.1058 234.6797 34.1297 234.6797 35.2179 234.8515 36.2137 235.1957 37.1177 235.5398 38.022 236.0237 38.8018 236.6476 39.458 237.2717 40.1139 238.0116 40.6259 238.8677 40.9938 239.7237 41.3617 240.6557 41.546 241.6637 41.546 242.3517 41.546 242.9796 41.4658 243.5477 41.3059 244.1157 41.1457 244.6197 40.938 245.0597 40.682 245.4996 40.4257 245.8596 40.1338 246.1397 39.8058 246.4197 39.4778 246.6156 39.1459 246.7278 38.81H248.5037C248.2637 39.354 247.9558 39.858 247.5797 40.322 247.2038 40.7857 246.7358 41.186 246.1757 41.5219 245.6158 41.8578 244.9596 42.122 244.2078 42.3139 243.4558 42.5058 242.5997 42.6019 241.6397 42.6019 240.2476 42.6019 238.9796 42.4018 237.8356 42.0018 236.6918 41.6018 235.7116 41.0298 234.8957 40.286 234.0797 39.5419 233.4475 38.6459 232.9997 37.5979 232.5518 36.5499 232.3276 35.3778 232.3276 34.0818 232.3276 32.9618 232.5076 31.8699 232.8676 30.8058 233.2276 29.742 233.7837 28.7977 234.5357 27.9737 235.2878 27.1497 236.2476 26.4858 237.4157 25.9818 238.5836 25.4778 239.9757 25.2258 241.5917 25.2258 242.6156 25.2258 243.5318 25.3219 244.3397 25.5138 245.1478 25.7057 245.8517 25.9418 246.4517 26.2219 247.0518 26.5017 247.5516 26.8019 247.9518 27.1219 248.3518 27.4419 248.6557 27.7217 248.8637 27.9618Z" fill="#d2ac67"/>
</g>
</svg>
